<?xml version="1.0" standalone="no"?>
<!DOCTYPE svg PUBLIC "-//W3C//DTD SVG 20010904//EN"
 "http://www.w3.org/TR/2001/REC-SVG-20010904/DTD/svg10.dtd">
<svg version="1.0" xmlns="http://www.w3.org/2000/svg"
 width="512.000000pt" height="512.000000pt" viewBox="0 0 512.000000 512.000000"
 preserveAspectRatio="xMidYMid meet">

<g transform="translate(0.000000,512.000000) scale(0.100000,-0.100000)"
   fill="#FFFFFF" stroke="none">
<path d="M4014 5101 c-187 -51 -335 -172 -414 -339 -62 -129 -60 -83 -60
-1290 0 -737 -3 -1101 -10 -1097 -6 3 -486 580 -1067 1282 -819 988 -1070
1286 -1115 1319 -119 87 -238 126 -388 127 -174 0 -314 -51 -425 -154 -82 -77
-131 -152 -169 -259 l-31 -85 0 -2040 0 -2040 23 -75 c79 -254 301 -431 561
-447 243 -15 477 117 589 333 75 147 72 79 72 1312 0 722 3 1101 10 1097 5 -3
485 -579 1065 -1280 1126 -1358 1100 -1330 1250 -1401 177 -85 357 -83 539 5
149 72 253 189 310 351 l31 85 0 2045 0 2045 -23 75 c-61 197 -222 361 -412
421 -96 30 -245 35 -336 10z m275 -180 c84 -26 137 -60 199 -125 59 -62 97
-135 112 -216 6 -34 10 -744 10 -2034 0 -2155 2 -2054 -55 -2151 -58 -101
-201 -192 -337 -215 -125 -22 -249 24 -363 133 -36 34 -571 671 -1188 1416
-818 988 -1130 1357 -1150 1364 -41 13 -86 -9 -103 -49 -12 -28 -14 -241 -14
-1263 0 -1196 -1 -1231 -20 -1292 -82 -267 -391 -387 -642 -252 -104 57 -195
183 -218 303 -14 73 -13 3988 1 4049 29 126 137 260 242 299 172 65 351 44
480 -54 20 -16 553 -652 1185 -1413 837 -1010 1155 -1387 1175 -1394 41 -13
86 9 103 49 12 28 14 241 14 1263 0 1196 1 1231 20 1292 45 146 170 263 320
299 63 15 166 11 229 -9z"/>
</g>
</svg>
