<?xml version="1.0" standalone="no"?>
<!DOCTYPE svg PUBLIC "-//W3C//DTD SVG 20010904//EN"
 "http://www.w3.org/TR/2001/REC-SVG-20010904/DTD/svg10.dtd">
<svg version="1.0" xmlns="http://www.w3.org/2000/svg"
 width="512.000000pt" height="512.000000pt" viewBox="0 0 512.000000 512.000000"
 preserveAspectRatio="xMidYMid meet">

<g transform="translate(0.000000,512.000000) scale(0.100000,-0.100000)"
fill="#000000" stroke="none">
<path d="M2910 4789 c-72 -14 -2733 -929 -2752 -946 -17 -15 -18 -105 -18
-1629 0 -1576 0 -1615 20 -1665 28 -74 65 -123 123 -163 106 -71 -58 -66 2162
-66 2173 0 2064 -3 2153 54 52 33 100 90 131 156 l26 55 3 466 3 467 54 4 c64
5 115 40 145 98 19 37 20 59 20 472 0 399 -2 436 -19 473 -10 22 -27 48 -37
57 -29 26 -89 48 -128 48 l-35 0 -3 468 -3 467 -26 56 c-52 109 -138 177 -253
198 -37 7 -231 11 -518 11 l-458 0 0 248 c0 270 -7 321 -58 416 -39 73 -136
168 -211 206 -104 52 -217 69 -321 49z m240 -165 c78 -35 160 -121 189 -199
19 -51 21 -77 21 -305 l0 -250 -1357 1 c-747 0 -1351 3 -1343 6 61 24 2252
772 2271 776 54 12 159 -2 219 -29z m1323 -905 c49 -13 105 -63 128 -114 17
-37 19 -76 19 -487 l0 -447 -377 -3 c-378 -3 -378 -3 -444 -29 -99 -38 -157
-76 -224 -143 -222 -226 -218 -588 9 -811 46 -46 94 -81 137 -102 124 -60 151
-63 543 -63 l356 0 0 -449 0 -449 -28 -53 c-22 -43 -38 -59 -81 -81 l-53 -28
-2009 0 c-1791 0 -2014 2 -2047 15 -47 20 -79 50 -103 97 -18 36 -19 83 -19
1598 l0 1560 2078 0 c1418 0 2089 -3 2115 -11z m355 -1201 c9 -9 12 -117 12
-425 l0 -413 -23 -15 c-20 -13 -85 -14 -467 -12 -426 3 -447 4 -502 24 -259
97 -371 381 -246 626 45 89 140 168 247 204 65 22 75 22 516 23 338 0 454 -3
463 -12z"/>
<path d="M3929 2326 c-49 -17 -88 -49 -121 -98 -33 -48 -42 -90 -36 -163 16
-197 269 -288 412 -149 48 46 67 85 73 150 9 83 -12 140 -71 199 -72 72 -166
94 -257 61z m160 -157 c58 -58 35 -153 -44 -179 -48 -16 -103 11 -128 62 -52
107 88 202 172 117z"/>
</g>
</svg>
